<mxfile host="Electron" modified="2023-06-09T14:11:33.569Z" agent="Mozilla/5.0 (Windows NT 10.0; Win64; x64) AppleWebKit/537.36 (KHTML, like Gecko) draw.io/21.3.7 Chrome/112.0.5615.204 Electron/24.5.0 Safari/537.36" etag="dLoqix2qJb-zhhkVDSHR" version="21.3.7" type="device">
  <diagram name="Page-1" id="TEoT009e3m1u3qDUiBox">
    <mxGraphModel dx="863" dy="512" grid="1" gridSize="10" guides="1" tooltips="1" connect="1" arrows="1" fold="1" page="1" pageScale="1" pageWidth="827" pageHeight="1169" math="0" shadow="0">
      <root>
        <mxCell id="0" />
        <mxCell id="1" parent="0" />
        <mxCell id="VMRn8pNpVm9z5YRv-981-1" value="" style="rounded=0;whiteSpace=wrap;html=1;fillColor=#E8E8E8;strokeColor=#666666;fontColor=#333333;" parent="1" vertex="1">
          <mxGeometry x="40" y="280" width="760" height="280" as="geometry" />
        </mxCell>
        <mxCell id="9MjjmHNh4XLL2jcoOhp--7" style="edgeStyle=orthogonalEdgeStyle;rounded=0;orthogonalLoop=1;jettySize=auto;html=1;fontColor=#000000;exitX=0.5;exitY=1;exitDx=0;exitDy=0;strokeColor=#002147;dashed=1;endArrow=none;endFill=0;" parent="1" source="9MjjmHNh4XLL2jcoOhp--1" edge="1">
          <mxGeometry relative="1" as="geometry">
            <Array as="points">
              <mxPoint x="125" y="430" />
              <mxPoint x="419" y="430" />
            </Array>
            <mxPoint x="320" y="430" as="targetPoint" />
          </mxGeometry>
        </mxCell>
        <mxCell id="9MjjmHNh4XLL2jcoOhp--1" value="&lt;div&gt;&lt;font face=&quot;Garamond&quot;&gt;&lt;b&gt;CSV File&lt;/b&gt;&lt;/font&gt;&lt;/div&gt;&lt;div&gt;&lt;font face=&quot;Garamond&quot;&gt;(Time, cycle number, step number, current, voltage, temperature, etc.)&lt;br&gt;&lt;/font&gt;&lt;/div&gt;" style="rounded=1;whiteSpace=wrap;html=1;aspect=fixed;fillColor=#dae8fc;strokeColor=#6c8ebf;fontColor=#000000;" parent="1" vertex="1">
          <mxGeometry x="46" y="310" width="158" height="79" as="geometry" />
        </mxCell>
        <mxCell id="9MjjmHNh4XLL2jcoOhp--2" value="&lt;div&gt;&lt;font face=&quot;Garamond&quot;&gt;&lt;b&gt;List of Cell Properties&lt;/b&gt;&lt;br&gt;&lt;/font&gt;&lt;/div&gt;&lt;div&gt;&lt;font face=&quot;Garamond&quot;&gt;(Cell ID, electrode size, mass loading, theor. capacities, # of layers, etc. )&lt;br&gt;&lt;/font&gt;&lt;/div&gt;" style="rounded=1;whiteSpace=wrap;html=1;fillColor=#fff2cc;strokeColor=#d6b656;fontColor=#000000;" parent="1" vertex="1">
          <mxGeometry x="240" y="310" width="161" height="79" as="geometry" />
        </mxCell>
        <mxCell id="9MjjmHNh4XLL2jcoOhp--15" style="edgeStyle=orthogonalEdgeStyle;rounded=0;orthogonalLoop=1;jettySize=auto;html=1;endArrow=none;endFill=0;fontColor=#000000;strokeColor=#002147;" parent="1" source="9MjjmHNh4XLL2jcoOhp--3" edge="1">
          <mxGeometry relative="1" as="geometry">
            <mxPoint x="516" y="430" as="targetPoint" />
          </mxGeometry>
        </mxCell>
        <mxCell id="9MjjmHNh4XLL2jcoOhp--3" value="&lt;div&gt;&lt;font face=&quot;Garamond&quot;&gt;&lt;b&gt;Test Protocols&lt;/b&gt;&lt;/font&gt;&lt;/div&gt;&lt;div&gt;&lt;font face=&quot;Garamond&quot;&gt;(Overview/aims, explanation of cycle and step numbers, control setpoints, etc.)&lt;b&gt;&lt;br&gt;&lt;/b&gt;&lt;/font&gt;&lt;/div&gt;" style="rounded=1;whiteSpace=wrap;html=1;aspect=fixed;fillColor=#fff2cc;strokeColor=#d6b656;fontColor=#000000;" parent="1" vertex="1">
          <mxGeometry x="437" y="310" width="158" height="79" as="geometry" />
        </mxCell>
        <mxCell id="9MjjmHNh4XLL2jcoOhp--14" style="edgeStyle=orthogonalEdgeStyle;rounded=0;orthogonalLoop=1;jettySize=auto;html=1;endArrow=none;endFill=0;fontColor=#000000;strokeColor=#002147;" parent="1" source="9MjjmHNh4XLL2jcoOhp--4" edge="1">
          <mxGeometry relative="1" as="geometry">
            <mxPoint x="420" y="430" as="targetPoint" />
            <Array as="points">
              <mxPoint x="712" y="430" />
            </Array>
          </mxGeometry>
        </mxCell>
        <mxCell id="9MjjmHNh4XLL2jcoOhp--4" value="&lt;div&gt;&lt;font face=&quot;Garamond&quot;&gt;&lt;b&gt;Material Properties&lt;/b&gt;&lt;/font&gt;&lt;/div&gt;&lt;div&gt;&lt;font face=&quot;Garamond&quot;&gt;(Particle distibution, Si content, electrolyte composition, transport parameters, etc.)&lt;br&gt;&lt;/font&gt;&lt;/div&gt;" style="rounded=1;whiteSpace=wrap;html=1;aspect=fixed;fillColor=#fff2cc;strokeColor=#d6b656;fontColor=#000000;" parent="1" vertex="1">
          <mxGeometry x="633" y="310" width="158" height="79" as="geometry" />
        </mxCell>
        <mxCell id="9MjjmHNh4XLL2jcoOhp--5" value="&lt;div&gt;&lt;font face=&quot;Garamond&quot;&gt;&lt;b&gt;JSON-LD&lt;/b&gt;&lt;/font&gt;&lt;/div&gt;&lt;div&gt;&lt;font face=&quot;Garamond&quot;&gt;(File containing machine and human-readable information)&lt;br&gt;&lt;/font&gt;&lt;/div&gt;" style="rounded=1;whiteSpace=wrap;html=1;aspect=fixed;fillColor=#dae8fc;strokeColor=#6c8ebf;fontColor=#000000;" parent="1" vertex="1">
          <mxGeometry x="340" y="470" width="158" height="79" as="geometry" />
        </mxCell>
        <mxCell id="9MjjmHNh4XLL2jcoOhp--16" value="&lt;u&gt;&lt;font face=&quot;Garamond&quot;&gt;&lt;b&gt;Cycler Data&lt;/b&gt;&lt;br&gt;&lt;/font&gt;&lt;/u&gt;" style="text;html=1;align=center;verticalAlign=middle;resizable=0;points=[];autosize=1;strokeColor=none;fillColor=none;fontColor=#000000;" parent="1" vertex="1">
          <mxGeometry x="80" y="280" width="90" height="30" as="geometry" />
        </mxCell>
        <mxCell id="9MjjmHNh4XLL2jcoOhp--17" value="&lt;font face=&quot;Garamond&quot;&gt;&lt;u&gt;&lt;b&gt;Cell Information&lt;br&gt;&lt;/b&gt;&lt;/u&gt;&lt;/font&gt;" style="text;html=1;align=center;verticalAlign=middle;resizable=0;points=[];autosize=1;strokeColor=none;fillColor=none;fontColor=#000000;" parent="1" vertex="1">
          <mxGeometry x="265.5" y="280" width="110" height="30" as="geometry" />
        </mxCell>
        <mxCell id="9MjjmHNh4XLL2jcoOhp--18" value="&lt;font face=&quot;Garamond&quot;&gt;&lt;u&gt;&lt;b&gt;Experimental Metadata&lt;br&gt;&lt;/b&gt;&lt;/u&gt;&lt;/font&gt;" style="text;html=1;align=center;verticalAlign=middle;resizable=0;points=[];autosize=1;strokeColor=none;fillColor=none;fontColor=#000000;" parent="1" vertex="1">
          <mxGeometry x="440" y="280" width="150" height="30" as="geometry" />
        </mxCell>
        <mxCell id="9MjjmHNh4XLL2jcoOhp--19" value="&lt;font face=&quot;Garamond&quot;&gt;&lt;u&gt;&lt;b&gt;Electrochemical Data&lt;br&gt;&lt;/b&gt;&lt;/u&gt;&lt;/font&gt;" style="text;html=1;align=center;verticalAlign=middle;resizable=0;points=[];autosize=1;strokeColor=none;fillColor=none;fontColor=#000000;" parent="1" vertex="1">
          <mxGeometry x="647" y="280" width="130" height="30" as="geometry" />
        </mxCell>
        <mxCell id="9MjjmHNh4XLL2jcoOhp--22" style="edgeStyle=orthogonalEdgeStyle;rounded=0;orthogonalLoop=1;jettySize=auto;html=1;startArrow=classic;startFill=1;endArrow=none;endFill=0;fillColor=#1ba1e2;strokeColor=#006EAF;fontColor=#000000;entryX=0.5;entryY=1;entryDx=0;entryDy=0;" parent="1" source="9MjjmHNh4XLL2jcoOhp--20" target="9MjjmHNh4XLL2jcoOhp--1" edge="1">
          <mxGeometry relative="1" as="geometry">
            <mxPoint x="310" y="430" as="targetPoint" />
          </mxGeometry>
        </mxCell>
        <mxCell id="9MjjmHNh4XLL2jcoOhp--20" value="&lt;font face=&quot;Garamond&quot;&gt;&lt;b&gt;Parquet Container&lt;br&gt;&lt;/b&gt;&lt;/font&gt;&lt;div&gt;&lt;font face=&quot;Garamond&quot;&gt;(Compressed cycler data)&lt;br&gt;&lt;/font&gt;&lt;/div&gt;" style="rounded=1;whiteSpace=wrap;html=1;aspect=fixed;fillColor=#dae8fc;strokeColor=#6c8ebf;fillStyle=hatch;fontColor=#000000;" parent="1" vertex="1">
          <mxGeometry x="46" y="470" width="158" height="79" as="geometry" />
        </mxCell>
        <mxCell id="VMRn8pNpVm9z5YRv-981-4" style="edgeStyle=orthogonalEdgeStyle;rounded=0;orthogonalLoop=1;jettySize=auto;html=1;endArrow=classic;endFill=1;fontColor=#000000;exitX=0.5;exitY=1;exitDx=0;exitDy=0;strokeColor=#002147;entryX=0.5;entryY=0;entryDx=0;entryDy=0;" parent="1" source="9MjjmHNh4XLL2jcoOhp--2" edge="1" target="9MjjmHNh4XLL2jcoOhp--5">
          <mxGeometry relative="1" as="geometry">
            <mxPoint x="320" y="430" as="targetPoint" />
            <mxPoint x="526" y="399" as="sourcePoint" />
            <Array as="points">
              <mxPoint x="320" y="430" />
              <mxPoint x="419" y="430" />
            </Array>
          </mxGeometry>
        </mxCell>
      </root>
    </mxGraphModel>
  </diagram>
</mxfile>
